<?xml version="1.0" encoding="UTF-8" standalone="no"?>
<!-- Created with Inkscape (http://www.inkscape.org/) -->

<svg
   width="46.783035mm"
   height="52.91724mm"
   viewBox="0 0 46.783035 52.91724"
   version="1.1"
   id="svg5"
   xmlns="http://www.w3.org/2000/svg"
   xmlns:svg="http://www.w3.org/2000/svg">
  <defs
     id="defs2" />
  <g
     id="layer1"
     transform="translate(-70.884588,-87.087053)">
    <g
       id="g11232"
       transform="translate(-151.97389,10.161512)">
      <path
         d="M 264.30751,77.407799 224.6306,100.31278 a 3.5507083,3.5507083 0 0 0 0,6.14627 l 39.6875,22.90762 a 3.5480625,3.5480625 0 0 0 5.32341,-3.07181 V 80.479611 a 3.5480625,3.5480625 0 0 0 -5.334,-3.071812 z"
         style="fill:#ededed;stroke-width:0.264583"
         id="path21" />
      <path
         style="fill:#ee777e;fill-opacity:1;stroke-width:0.287448"
         d="m 236.26215,129.49818 c -3.3652,-0.0996 -4.01989,-1.54413 -4.13158,-4.77424 l -0.008,-0.004 -0.003,-18.21234 c -0.002,-12.854705 0.093,-18.500957 0.32302,-19.193437 0.48828,-1.470296 1.57715,-2.793468 2.82843,-3.437055 1.06755,-0.549082 1.70247,-0.574581 14.30655,-0.574581 11.10327,0 13.35273,0.06879 14.22192,0.434935 1.25741,0.529683 1.98366,1.320733 2.78045,3.028541 0.59318,1.271354 0.60783,1.670897 0.69346,18.904817 0.0607,12.21227 0.0566,18.82219 -0.16214,19.62299 0.11759,1.24244 -0.83301,3.41716 -3.6334,4.04736 l -0.0135,-0.003 -13.60133,0.0801 z m 6.09994,-8.81153 c 1.136,-0.9637 1.69375,-2.95536 1.24785,-4.45584 -1.22909,-4.13592 -5.76699,-3.08785 -5.76699,1.33194 0,3.13424 2.48338,4.8509 4.51914,3.1239 z m 18.94564,0.15557 c 0.42313,-0.79711 0.38439,-6.45311 -0.0471,-6.88821 -0.24971,-0.25176 -2.39157,-0.34635 -7.84203,-0.34635 -6.57358,0 -7.51995,0.0563 -7.67228,0.45654 -0.33066,0.86872 -0.19081,6.6264 0.16977,6.98993 0.24941,0.25146 2.36433,0.34636 7.71946,0.34636 6.99935,0 7.39103,-0.0285 7.67226,-0.55827 z m -18.84367,-11.35459 c 2.31857,-2.01048 1.26461,-6.84764 -1.49202,-6.84764 -2.01252,0 -3.12909,1.35823 -3.12909,3.80631 0,3.01546 2.6441,4.75563 4.62111,3.04133 z m 18.79649,0.3102 c 0.47111,-0.47496 0.47111,-6.33653 0,-6.8115 -0.489,-0.493 -14.85554,-0.493 -15.34454,0 -0.3603,0.36325 -0.49896,5.83645 -0.16977,6.70131 0.15233,0.40022 1.0987,0.45655 7.67228,0.45655 5.45046,0 7.59232,-0.0946 7.84203,-0.34636 z M 242.83838,98.137423 c 1.32922,-1.832706 1.10311,-4.700056 -0.47629,-6.039914 -2.66477,-2.260618 -5.62174,1.461764 -4.09247,5.1518 0.23467,0.566244 0.65336,1.170188 0.9304,1.342075 0.78353,0.486125 3.17275,0.188014 3.63836,-0.453961 z m 18.59193,0.293912 c 0.29071,-0.763776 0.19382,-5.893356 -0.12258,-6.489386 -0.28123,-0.529771 -0.67291,-0.558272 -7.67226,-0.558272 -5.35513,0 -7.47005,0.09489 -7.71946,0.346348 -0.36763,0.370642 -0.50442,6.610826 -0.15268,6.96544 0.10497,0.10583 3.63388,0.192411 7.84204,0.192411 6.71279,0 7.67249,-0.05603 7.82494,-0.456541 z"
         id="path10102" />
    </g>
  </g>
</svg>
