<svg id="Capa_1" data-name="Capa 1" xmlns="http://www.w3.org/2000/svg" viewBox="0 0 176.82 200"><g id="Capa_2" data-name="Capa 2"><g id="contenido"><path d="M156.66,1.82,6.7,88.39a13.42,13.42,0,0,0,0,23.23l150,86.58a13.41,13.41,0,0,0,20.12-11.61V13.43A13.41,13.41,0,0,0,156.66,1.82Z" transform="translate(0 0)" style="fill:#ededed"/><path d="M170.31,64.09a1.94,1.94,0,0,1,0,3.55l-25.4,11.1-4.48-1.8L139,80.54l.94.36L99.44,98.59a2,2,0,0,1-1.55,0L57.21,80.82,58,80.5l-.73-1.78L98.68,96.8l6.45-2.8-2.4-1,62-27.07-62-27.08,2.42-1L98.7,35,27.83,66l27,11.77-2.5,1-25.21-11a1.94,1.94,0,0,1,0-3.55L97.89,33.16a1.9,1.9,0,0,1,1.55,0Z" transform="translate(0 0)" style="fill:#ee777e"/><path d="M170.24,113a1.92,1.92,0,0,1,1.08,2.5,1.88,1.88,0,0,1-1,1.06l-24.47,10.68,24.4,9.62a1.93,1.93,0,0,1,1.1,2.5,2,2,0,0,1-1,1.07l-70.87,31a2,2,0,0,1-1.55,0L27.05,140.47a1.93,1.93,0,0,1-1-2.53,2,2,0,0,1,1.07-1l24.08-9.77L27.05,116.6a1.93,1.93,0,0,1,.05-3.6l24.41-9.9L27.05,92.45a1.93,1.93,0,0,1,.05-3.56L52.26,78.65l5,2.17L32.8,90.75l65.88,28.77,65.84-28.75L139.93,80.9l5-2.16,25.35,10.15a1.93,1.93,0,0,1,.05,3.56l-24.82,10.84ZM98.68,143.67l65.81-28.75-24-9.43L99.44,123.4a1.9,1.9,0,0,1-1.55,0L56.46,105.3,32.8,114.9Zm0,23.86,65.81-28.75-23.66-9.3L99.44,147.55a1.9,1.9,0,0,1-1.55,0L56.13,129.3,32.8,138.77Z" transform="translate(0 0)" style="fill:#ee777e"/><polygon points="144.91 78.74 139.93 80.9 138.99 80.54 140.43 76.94 144.91 78.74" style="fill:#ee777e"/><polygon points="105.13 37.74 102.71 38.79 98.68 37.04 32.65 65.87 98.68 94.7 102.73 92.94 105.13 93.99 98.68 96.8 57.25 78.72 56.51 76.92 54.76 77.64 27.81 65.87 98.68 34.92 105.13 37.74" style="fill:#ee777e"/><polygon points="93.91 80.94 92.36 84.47 59.18 69.85 60.73 66.32 93.91 80.94" style="fill:#ee777e"/><polygon points="57.25 78.72 57.98 80.5 57.21 80.82 52.26 78.65 54.76 77.64 57.25 78.72" style="fill:#ee777e"/><polygon points="56.51 76.92 57.25 78.72 54.76 77.64 56.51 76.92" style="fill:#b2b2b2"/><polygon points="56.78 64.75 55.23 68.29 51.18 66.52 52.71 62.97 56.78 64.75" style="fill:#ee777e"/></g></g></svg>