<svg id="Capa_1" data-name="Capa 1" xmlns="http://www.w3.org/2000/svg" viewBox="0 0 176.82 200"><g id="Capa_2" data-name="Capa 2"><g id="contenido"><path d="M156.66,1.82,6.7,88.39a13.42,13.42,0,0,0,0,23.23l150,86.58a13.41,13.41,0,0,0,20.12-11.61V13.43A13.41,13.41,0,0,0,156.66,1.82Z" transform="translate(0 0)" style="fill:#ededed"/><path d="M98.54,175.1h-64c0-2.22.1-4.5.08-6.76a17.86,17.86,0,0,0,.24-4V146.81c0-23.31,0-47.42-.06-71.14,0-2.92.81-4.45,3.12-5.86,7.28-4.43,14.64-9,21.75-13.43,6.1-3.8,12.41-7.72,18.64-11.54a7.77,7.77,0,0,0,4.17-7.38c-.1-6.81-.08-13.74,0-20.44V12.26c0-4.36.42-4.76,4.85-4.76h69.74c4.62,0,4.9.29,4.9,5.06V164.3a27.15,27.15,0,0,0,.11,3.25l-.13,2c-.12,1.81-.24,3.67-.35,5.53Q130,175.11,98.54,175.1Zm23.63-3.8c9.82,0,19.7,0,29.36.1h.15a6.92,6.92,0,0,0,5-1.55c1.42-1.38,1.56-3.42,1.55-5-.1-47.72-.1-97,0-146.48,0-1.63-.17-3.69-1.56-5.09s-3.36-1.55-4.93-1.55h-.14c-10,.07-19.93.11-29.46.11-9.86,0-19.65,0-29.1-.12h-.17c-1.64,0-3.7.18-5.1,1.59s-1.59,3.54-1.58,5.23c.11,18.31.1,36.92.09,54.93v35.76c0,18.28,0,37.18-.07,55.77,0,1.58.16,3.56,1.52,4.92a6.52,6.52,0,0,0,4.79,1.52h.13C102.49,171.33,112.44,171.3,122.17,171.3ZM44,142.36a4.82,4.82,0,0,0-5.4,5.52c.09,5.25.16,11.45,0,17.7a5.7,5.7,0,0,0,1.34,4.35,5.75,5.75,0,0,0,4.28,1.45h.39c1.94,0,4-.07,6.64-.07H70.14c2.34,0,4.67,0,7,.05h.17A5.1,5.1,0,0,0,81.15,170a5.27,5.27,0,0,0,1.3-4c-.09-6.23-.09-12.45,0-18.49a5.1,5.1,0,0,0-1.28-3.84,5.48,5.48,0,0,0-4-1.36H60.26q-8.07,0-16.12-.06Zm.45-22.3c-1.82,0-3.42.09-4.55,1.23-1.29,1.3-1.29,3.06-1.27,6.59v4.39A5.76,5.76,0,0,0,40,136.68a6,6,0,0,0,4.39,1.48H76.68c1.7,0,3.33-.1,4.47-1.25,1.32-1.33,1.31-3.19,1.28-6.9V125.5a4.79,4.79,0,0,0-4-5.44,4.56,4.56,0,0,0-1.33,0H44.45Zm.21-22.36c-1.91,0-3.58.09-4.74,1.26s-1.3,3.17-1.29,6.56v4.15A6.41,6.41,0,0,0,40,114.38a5.63,5.63,0,0,0,4.23,1.46h.43c1.84-.06,3.82-.09,6.24-.09H76.43c1.78,0,4,0,5.17-1.82.82-1.27.82-2.9.82-5.86v-4.24a5.33,5.33,0,0,0-4.29-6.2,5.41,5.41,0,0,0-1.84,0H76c-2.38,0-5,.06-8.14.06H46.43Zm6.22-22.79c-5.77,0-8.67,0-10.54,1.89s-1.84,4.8-1.76,10.58v.25c0,1.45.07,5.87,5.52,5.87h.37c1.9,0,4-.08,6.44-.08H70c5.85,0,8.78,0,10.67-1.89s1.85-4.72,1.83-10.37v-.28c0-2.6-.63-6.06-5.8-6.06h-.26c-3.19.06-6.66.08-10.92.08H50.88ZM79.41,49.52a4.66,4.66,0,0,0-2.47.84l-3.78,2.33c-1.36.84-2.73,1.67-4.08,2.52L55.94,63.45l-6.42,4,1.12,3.61H78.17c1,0,4.24-.34,4.24-4.68V53.48a4.39,4.39,0,0,0-1-3.15A2.85,2.85,0,0,0,79.41,49.52Z" transform="translate(0 0)" style="fill:#ee777e"/><path d="M106.61,135.63c-2.24,0-4.29,0-6.24-.08-3.07-.09-3.58-.9-3.65-3.45-.12-4.17-.08-8.43,0-12.55v-1.08c0-2.34,1-3.27,3.39-3.29h7.69c2.13,0,4.15,0,5.93.08,2.57.08,3.34.57,3.46,3.67.06,1.57,0,3.19,0,4.76v4.2h0v3.18c0,4-.49,4.51-4.33,4.57C110.79,135.6,108.7,135.63,106.61,135.63Zm.61-4.23a8.81,8.81,0,0,0,1.36.11,4.91,4.91,0,0,0,3.6-1.34,6.18,6.18,0,0,0,1.52-4.6c0-2.74-.62-6.38-5.86-6.38h-.35c-2.42.06-6.91.19-6.78,6.17.12,5,3,6.11,5.32,6.11h0a9.39,9.39,0,0,0,1.19-.07Z" transform="translate(0 0)" style="fill:#ee777e"/><path d="M138,135.59c-2.61,0-5.25,0-7.82-.08-2,0-2.89-.94-2.94-3-.08-4.2-.07-8.78,0-14,0-2.31,1-3.27,3.44-3.31,2.69,0,5.48-.08,8.21-.08,1.83,0,3.48,0,5,.06,3.19.08,3.68.61,3.73,4v3.91h0v9.4c0,2.47-1.11,3-2.76,3C142.57,135.57,140.27,135.59,138,135.59Zm0-16.39c-2,0-4,.21-5.37,1.66a6.08,6.08,0,0,0-1.39,4.54c.14,5,2.93,6.1,5.26,6.1a9.2,9.2,0,0,0,1.17-.08,10.48,10.48,0,0,0,1.25.07,5.16,5.16,0,0,0,3.83-1.39,6.1,6.1,0,0,0,1.49-4.57c0-2.72-.65-6.34-5.93-6.34Z" transform="translate(0 0)" style="fill:#ee777e"/><path d="M107,43.45c-2.48,0-5,0-7.4-.12-1.51-.06-2.9-.5-2.88-3.4V26.65c0-2.85.74-3.47,3.54-3.54,1.66-.05,3.46-.07,5.66-.07h8c2.42,0,3.28.85,3.29,3.24V40c0,2.29-.84,3.25-3,3.31C111.79,43.41,109.35,43.45,107,43.45Zm-.9-16.29c-2.38,0-5.23,1-5.35,6a6.11,6.11,0,0,0,1.42,4.62c1.35,1.4,3.34,1.62,5.28,1.66h.23a6.23,6.23,0,0,0,4.5-1.44,6.58,6.58,0,0,0,1.53-4.77c0-5.25-3.31-6-5.27-6a10.16,10.16,0,0,0-1.23.08,11,11,0,0,0-1.15-.15Z" transform="translate(0 0)" style="fill:#ee777e"/><path d="M137,43.56c-2,0-4,0-6-.12-2.87-.12-3.78-1-3.88-3.86-.16-4.35-.09-8.81,0-13.12,0-2.43,1-3.35,3.37-3.37h8.18c1.81,0,3.63,0,5.44.05,2.84.05,3.36.57,3.48,3.49V38.32c0,4.75-.2,4.94-4.92,5.13C140.85,43.52,138.93,43.56,137,43.56Zm1-4.23a7,7,0,0,0,1.37.13c3.08,0,4.69-2.09,4.8-6.2a6,6,0,0,0-1.39-4.51c-1.33-1.38-3.3-1.6-5-1.64h-.29a6.43,6.43,0,0,0-4.71,1.56,6.77,6.77,0,0,0-1.56,4.92c0,3.8,1.92,5.81,5.49,5.81h0C137.08,39.4,137.52,39.37,138,39.33Z" transform="translate(0 0)" style="fill:#ee777e"/><path d="M102.2,74c-1,0-2,0-2.92-.06-1.75-.07-2.51-.82-2.55-2.5-.1-5-.09-10,0-15.07,0-1.43.45-2.25,2.51-2.25h15.23c2,0,2.61.65,2.64,2.55.07,4.22.08,8.79,0,14.37,0,1.82-.55,2.95-3.18,3H109.1L107,74h-4.8Zm5-16.41a6.76,6.76,0,0,0-5,1.62A6.62,6.62,0,0,0,100.67,64c0,4.27,1.78,6.44,5.18,6.44h0a9,9,0,0,0,1.27-.09,9.34,9.34,0,0,0,1.18.07c2.41,0,5.3-1.1,5.38-6.39a6.7,6.7,0,0,0-1.51-4.9,6.7,6.7,0,0,0-4.87-1.58Z" transform="translate(0 0)" style="fill:#ee777e"/><path d="M108.9,104.51H99.51c-2.07,0-2.81-.76-2.82-2.87V87.58c0-2.07.83-2.88,2.89-2.9h14.78c1.67,0,2.78.54,2.8,3v1.45c0,4,.07,8.16,0,12.22-.06,2.83-.34,3.1-3.24,3.17h-5ZM107.3,88.1c-1.75,0-3.74.23-5.11,1.65a6.45,6.45,0,0,0-1.49,4.75c0,2.8.72,6.53,6.22,6.53h.26c2,0,4.16-.29,5.48-1.91a5.48,5.48,0,0,0,.92-4.47,5.71,5.71,0,0,0-1-4.71c-1-1.24-2.7-1.84-5.1-1.84Z" transform="translate(0 0)" style="fill:#ee777e"/><path d="M130,104.49c-1.87,0-2.69-.77-2.76-2.6-.18-5-.18-9.9,0-14.67.06-1.81.92-2.58,2.85-2.58h14.82c1.93,0,2.66.74,2.67,2.63v15.16c0,1.45-.54,2-2,2H130Zm7.23-16.39c-5.3,0-6,3.5-6.09,6.56a6.39,6.39,0,0,0,1.46,4.71c1.4,1.41,3.4,1.63,5.19,1.63H138c2.35,0,4-.6,5-1.83a5.76,5.76,0,0,0,1-4.75,5.44,5.44,0,0,0-.89-4.42c-1.3-1.6-3.43-1.87-5.54-1.93Z" transform="translate(0 0)" style="fill:#ee777e"/><path d="M138,74c-2.73,0-5.45,0-8.09-.1-1.83,0-2.67-.9-2.71-2.79-.13-4.82-.13-9.51,0-14,.06-2.2.91-3.06,3-3.06h14.66a3.26,3.26,0,0,1,2.18.59,3.55,3.55,0,0,1,.56,2.37V71.14c0,2.41-1.28,2.76-2.61,2.79C142.69,74,140.36,74,138,74Zm-.58-16.41c-5.57,0-6.25,3.71-6.29,6.5a6.62,6.62,0,0,0,1.52,4.81c1.39,1.41,3.44,1.6,5.06,1.61h0c1.68,0,3.95-.2,5.34-1.86a5.63,5.63,0,0,0,1-4.66,5.44,5.44,0,0,0-.93-4.5c-1.34-1.64-3.62-1.88-5.45-1.9Z" transform="translate(0 0)" style="fill:#ee777e"/></g></g></svg>