<svg id="Capa_1" data-name="Capa 1" xmlns="http://www.w3.org/2000/svg" viewBox="0 0 79.12 79.12"><g id="Capa_2" data-name="Capa 2"><g id="contenido"><circle cx="39.56" cy="39.56" r="39.56" style="fill:#b2b2b2"/><rect x="22.23" y="32.46" width="40.47" height="6.52" transform="translate(-11.23 49.73) rotate(-54.7)" style="fill:#fff"/><path d="M52.2,16.34l1.24-1.75a3,3,0,0,1,4.18-.72h0l.42.3a3,3,0,0,1,.71,4.18l-1.24,1.76h0L52.2,16.34Z" transform="translate(0 0)" style="fill:#fff"/><polygon points="27.31 51.62 26.96 57.76 32.63 55.39 27.31 51.62" style="fill:#fff"/><path d="M58.15,22.84,57,24.46a3.88,3.88,0,0,1,1.6,3.15V56.48a3.88,3.88,0,0,1-3.88,3.88H25.85A3.89,3.89,0,0,1,22,56.48V27.61a3.9,3.9,0,0,1,3.89-3.9H44.67l1.41-2H25.85A5.9,5.9,0,0,0,20,27.61V56.48a5.9,5.9,0,0,0,5.89,5.88H54.72a5.9,5.9,0,0,0,5.88-5.88V27.61A5.86,5.86,0,0,0,58.15,22.84Z" transform="translate(0 0)" style="fill:#fff"/></g></g></svg>