<svg id="Capa_1" data-name="Capa 1" xmlns="http://www.w3.org/2000/svg" viewBox="0 0 72.91 50.1"><g id="Capa_2" data-name="Capa 2"><g id="contenido"><path d="M48.64,30.12a1.35,1.35,0,0,1-1,2.3H46v13.9H29.31V32.42H27.43a1.36,1.36,0,0,1-1-2.32L36.69,19.87a1.36,1.36,0,0,1,1.92,0h0Z" transform="translate(-0.01 0)" style="fill:#ee777e"/><path d="M46,46.32v2.42a1.36,1.36,0,0,1-1.36,1.36h-14a1.36,1.36,0,0,1-1.36-1.36h0V46.32Z" transform="translate(-0.01 0)" style="fill:#ee777e"/><path d="M46,46.32h5.22a21.09,21.09,0,0,0-.54-42.18,19.92,19.92,0,0,0-3.93.39A13.79,13.79,0,0,0,24,11.41a17.85,17.85,0,1,0-5.26,34.91H29.31" transform="translate(-0.01 0)" style="fill:none;stroke:#ee777e;stroke-miterlimit:10;stroke-width:1.7599999904632568px"/></g></g></svg>