<svg id="Capa_1" data-name="Capa 1" xmlns="http://www.w3.org/2000/svg" viewBox="0 0 63.03 83.84"><g id="Capa_2" data-name="Capa 2"><g id="menus_bg" data-name="menus bg"><path d="M63,42V81.36c0,2.27-.2,2.48-2.41,2.48H2.43C.26,83.84,0,83.61,0,81.48V22a3.86,3.86,0,0,1,1.22-3Q10.31,10.11,19.3,1a3.13,3.13,0,0,1,2.44-1h39c2,0,2.29.25,2.29,2.36Zm-2.56-.14V3.94c0-1.52,0-1.54-1.55-1.54H23.51c-1.12,0-1.46.34-1.45,1.45.05,5.39,0,10.79,0,16.19,0,1.71-.29,2-2,2H4.44c-1.85,0-1.85,0-1.85,1.83V79.62c0,1.8,0,1.8,1.77,1.8H58.7c1.73,0,1.74,0,1.74-1.71Zm-40.78-37L5,19.49H18.88c.59,0,.78-.37.78-.91Z" transform="translate(0 0)" style="fill:#706f6f"/></g></g></svg>