<svg id="Capa_1" data-name="Capa 1" xmlns="http://www.w3.org/2000/svg" viewBox="0 0 116.88 70.84"><g id="Capa_2" data-name="Capa 2"><g id="menus_bg" data-name="menus bg"><path d="M92.1,67.74a20.36,20.36,0,0,0,11.34-2.25c7.3-4.12,11-10.43,10.33-18.74-.6-8-4.93-13.56-12.35-16.6a3.53,3.53,0,0,1-2.65-3.31A14,14,0,0,0,84.94,14.21a11.37,11.37,0,0,0-5.15.9c-1.42.66-2.37.28-3.38-.86A31.39,31.39,0,0,0,57.24,3.5,31.78,31.78,0,0,0,30.65,11,31.24,31.24,0,0,0,20.51,27.3a2.55,2.55,0,0,1-2.15,2C4.41,32.57-1.58,48.18,6.77,59.76a18.54,18.54,0,0,0,15.14,8c2.77.08,5.54,0,8.32,0,1.09,0,2.16.17,2.14,1.55s-1,1.53-2.07,1.51c-4.1-.08-8.22.3-12.3-.49A22.74,22.74,0,0,1,.11,50.54,22.47,22.47,0,0,1,16.27,26.71c1.2-.33,1.54-1.09,1.89-2.09C22.76,11.5,31.88,3.28,45.52.69c12.3-2.35,23,1.36,31.84,10.23a2.69,2.69,0,0,0,3.09.89c9.63-2.69,19.7,4,21.23,14a2.07,2.07,0,0,0,1.4,1.79c8.76,4,13.55,10.86,13.79,20.35A22.32,22.32,0,0,1,96.68,70.61c-3.32.32-6.64.13-10,.19-1,0-2-.24-2-1.56s1-1.49,2-1.5Z" transform="translate(0 0)" style="fill:#706f6f"/><path d="M76.21,41.2c-.36-.39-.62-.7-.91-1C70.08,35,64.83,29.8,59.64,24.53c-1-1-1.49-.92-2.42,0-5.15,5.23-10.37,10.39-15.56,15.58-.32.32-.73.57-.87,1.08.42.42,1,.22,1.43.22h8.46c1.67,0,2.19.5,2.2,2.12V57.64c0,1-.17,2-1.39,2s-1.59-1-1.6-2V46.16c0-2,0-2-2-2H37.71c-.81,0-1.61,0-2-.89s.23-1.47.79-2L56.88,21c1.31-1.3,1.81-1.31,3.1,0q10.2,10.16,20.39,20.34c.55.56,1.2,1.11.81,2s-1.19.91-2,.91H68.79c-1.71,0-1.77.07-1.77,1.82V57.82c-.08.93-.34,1.84-1.45,1.86S64,58.83,64,57.8V43.41c0-1.44.57-1.94,2.09-2h8.45A2.89,2.89,0,0,0,76.21,41.2Z" transform="translate(0 0)" style="fill:#706f6f"/></g></g></svg>