<svg id="Capa_1" data-name="Capa 1" xmlns="http://www.w3.org/2000/svg" viewBox="0 0 91.11 88.38"><g id="Capa_2" data-name="Capa 2"><g id="menus_bg" data-name="menus bg"><path d="M91,77.75c.29,1.38,0,1.89-1.33,2.19-2.82.65-5.65,1.24-8.47,1.85-.83.18-1.52,0-1.73-.88s.45-1.31,1.22-1.48c1.91-.44,3.82-.85,5.69-1.26a.69.69,0,0,0-.46-.7c-2.24-1.44-4.5-2.85-6.72-4.31a2,2,0,0,0-.7-.3L75.58,71v-.08l-.28-.24a4.57,4.57,0,0,0,1.38-2l3.38,2.1a3.25,3.25,0,0,0,.78.6c2.06,1.2,4,2.56,6,3.84.31.19.6.51,1.15.36L87,71.1c-.1-.49-.22-1-.3-1.48a1.18,1.18,0,0,1,.83-1.46l.11,0A1.12,1.12,0,0,1,89,69a.29.29,0,0,1,0,.09c.14.48.23,1,.34,1.46C90,72.93,90.51,75.34,91,77.75Z" transform="translate(0 0)" style="fill:#4dbcc3"/><path d="M76.78,68.15a.39.39,0,0,1-.21.24.58.58,0,0,1-.26.06l-.56-.35-.19-.1c-1.56-1-3-2-4.56-3a2.23,2.23,0,0,1-1.17-2.17c0-7.52,0-15,0-22.55a2.92,2.92,0,0,0-1.66-2.86c-6.86-3.91-13.68-7.89-20.53-11.82a1.51,1.51,0,0,1-1-1.42v-6h0c0-.85.29-.91.82-.65h0l.28.15Q60.44,25,73.05,32.25a13.86,13.86,0,0,0,1.81,1c1.58.59,2,1.65,2,3.3-.11,5,0,10,0,14.92V67.31A2.64,2.64,0,0,1,76.78,68.15Z" transform="translate(0 0)" style="fill:#4dbcc3"/><path d="M76.78,68.15a1.9,1.9,0,0,1-.09.53l-.38-.23a.58.58,0,0,0,.26-.06A.39.39,0,0,0,76.78,68.15Z" transform="translate(0 0)" style="fill:#706f6f"/><path d="M16,70.82a.93.93,0,0,1-.14-.14l.2-.14c1.77-1.1,3.52-2.22,5.27-3.35.52-.35.93-.14,1.38.12l12.81,7.4c3,1.73,6,3.44,9,5.19a2,2,0,0,0,2.27,0c7.1-4.12,14.21-8.21,21.29-12.35a1.94,1.94,0,0,1,2.41,0q2.22,1.5,4.55,3a2.37,2.37,0,0,1,.3.23.47.47,0,0,1-.1.1l.37.22c-.06.34-.34.4-.54.52L58.72,81c-4.11,2.37-8.22,4.72-12.31,7.11a1.46,1.46,0,0,1-1.69,0Q30.41,79.8,16.08,71.57c-.32-.18-.51-.34-.52-.51Z" transform="translate(0 0)" style="fill:#4dbcc3"/><path d="M67.78,41V61.7c0,.32.15.76-.27.92s-.56-.18-.81-.35l-18.8-12a2.21,2.21,0,0,1-1.17-2.15V29.27c0-1.52.06-1.55,1.34-.82,6.25,3.6,12.48,7.2,18.74,10.77A1.8,1.8,0,0,1,67.78,41Z" transform="translate(0 0)" style="fill:#4dbcc3"/><path d="M65.94,64.67c1.25.81,1.26.85,0,1.61Q56.1,72,46.28,77.6a1.33,1.33,0,0,1-1.5,0Q34.85,71.8,24.89,66c-.26-.15-.58-.24-.64-.66a7.59,7.59,0,0,1,.71-.56c6.1-3.91,12.27-7.71,18.27-11.77,1.86-1.26,3.09-1,4.83.11C54,57.08,60,60.84,65.94,64.67Z" transform="translate(0 0)" style="fill:#4dbcc3"/><path d="M52.77,6.66c.6.59,1,1.3.36,2S51.66,9,51,8.39l-3.93-4c-.47.33-.35.66-.36,1V17.1a4.37,4.37,0,0,0-2.35.12v-4a2.67,2.67,0,0,0,0-.4V4.52L44,4.37,40.49,8a8,8,0,0,1-.85.79,1.15,1.15,0,0,1-1.58,0A1.13,1.13,0,0,1,37.9,7.2a.52.52,0,0,1,.1-.11,20.32,20.32,0,0,1,1.44-1.5C41.06,4,42.68,2.31,44.33.68c.93-.91,1.54-.91,2.47,0C48.8,2.67,50.78,4.67,52.77,6.66Z" transform="translate(0 0)" style="fill:#4dbcc3"/><path d="M47.55,17.51c-.53-.26-.82-.2-.82.65V17.11A2.5,2.5,0,0,1,47.55,17.51Z" transform="translate(0 0)" style="fill:#706f6f"/><path d="M14.38,68.23c-.13-.23,0-.57,0-.84V35.67a2,2,0,0,1,1.18-2q13.78-7.91,27.55-15.86l.55-.31h0l.39-.15c.35-.07.37.28.37,1.26V24a1.56,1.56,0,0,1-.9,1.57c-7,4-13.88,8-20.83,12A2.49,2.49,0,0,0,21.3,40V62.47a2.69,2.69,0,0,1-1.5,2.79c-1.5.79-2.86,1.82-4.3,2.72l-.22.19-.42.26h0a.48.48,0,0,1-.35-.07A.4.4,0,0,1,14.38,68.23Z" transform="translate(0 0)" style="fill:#4dbcc3"/><path d="M44.39,28.87V48.53a1.71,1.71,0,0,1-.92,1.59q-9.51,6-19,12.14c-.28.17-.55.55-.92.35s-.2-.63-.2-1V41.2A2.24,2.24,0,0,1,24.6,39Q34,33.71,43.3,28.26C44.12,27.78,44.39,28,44.39,28.87Z" transform="translate(0 0)" style="fill:#4dbcc3"/><path d="M44.38,17.23v1.39c0-1,0-1.33-.37-1.26Z" transform="translate(0 0)" style="fill:#706f6f"/><path d="M15.81,70.68c-.18.14-.26.27-.25.38l-2.88,1.78a1.52,1.52,0,0,0-.7.28C9.54,74.72,7.07,76.28,4.46,78a14.8,14.8,0,0,0,3.27.89c.86.23,1.73.38,2.6.56S11.85,80,11.61,81s-1,1-1.77.82l-2.6-.56C5.32,80.8,3.4,80.41,1.49,80c-1.36-.36-1.68-.85-1.4-2.2.59-2.8,1.2-5.57,1.81-8.36.18-.82.57-1.54,1.55-1.29s1,1,.81,1.88c-.35,1.5-.66,3-1,4.52a2,2,0,0,0-.09,1.18,13.43,13.43,0,0,0,2.68-1.59c1.57-1,3.1-2,4.7-3a2.62,2.62,0,0,0,.6-.45l3.3-2A4.64,4.64,0,0,0,15.81,70.68Z" transform="translate(0 0)" style="fill:#4dbcc3"/><path d="M14.86,68.44l-.39.24a1.8,1.8,0,0,1-.09-.45.44.44,0,0,0,.13.14A.48.48,0,0,0,14.86,68.44Z" transform="translate(0 0)" style="fill:#706f6f"/></g></g></svg>