<svg id="Capa_1" data-name="Capa 1" xmlns="http://www.w3.org/2000/svg" viewBox="0 0 179.9 200"><g id="Capa_2" data-name="Capa 2"><g id="contenido"><path d="M156.66,1.82,6.7,88.39a13.42,13.42,0,0,0,0,23.23l150,86.58a13.41,13.41,0,0,0,20.12-11.61V13.43A13.41,13.41,0,0,0,156.66,1.82Z" transform="translate(0 0)" style="fill:#ededed"/><path d="M179.9,70v62.81a1.94,1.94,0,0,1-1.94,1.94H138V130.9h38V72H45.93V70H36.22v62.79h9.71V130.9H76.17v3.88H36.24a1.92,1.92,0,0,1-1.94-1.9V70a1.94,1.94,0,0,1,1.88-2h16.3V55.39a1.92,1.92,0,0,1,1.9-1.94H71.89V39.2a1.92,1.92,0,0,1,1.92-1.94h66.55a1.94,1.94,0,0,1,1.94,1.94h0V53.45h17.48a1.92,1.92,0,0,1,1.94,1.9V68.08H178A2,2,0,0,1,179.9,70Zm-22.06-2V57.33H142.3V68.08Zm-19.42,0V41.14H83.47V39.31h-9.7V70h9.7V68ZM71.89,68V57.33H56.36V68.08Z" transform="translate(0 0)" style="fill:#ee777e"/><path d="M155.07,98.53v17.08a1.92,1.92,0,0,1-1.92,1.94H138v-3.88h13.16v-13.2H63v13.2H76.17v3.88H61.05a1.94,1.94,0,0,1-1.94-1.94h0V98.53a1.94,1.94,0,0,1,1.94-1.94h92.08a1.92,1.92,0,0,1,1.94,1.92Z" transform="translate(0 0)" style="fill:#ee777e"/><path d="M138,134.78v34.08a2,2,0,0,1-1.95,1.94H90.78a2.18,2.18,0,0,1-1.09-.47l-12.85-11.2a2,2,0,0,1-.67-1.48V134.78h1.89V130.9H76.17V117.55h2.11v-3.88H76.17v-13.2h3.88v55.16H91a1.93,1.93,0,0,1,2,1.86v9.42h41.18V100.47H138v13.2h-1.81v3.88H138V130.9h-2v3.88Zm-49,29.8v-5.07H83.25Z" transform="translate(0 0)" style="fill:#ee777e"/><rect x="135.98" y="130.9" width="2.04" height="3.88" style="fill:#ee777e"/><rect x="136.22" y="113.67" width="1.8" height="3.88" style="fill:#ee777e"/><rect x="88.01" y="146.42" width="38.18" height="3.88" style="fill:#ee777e"/><rect x="88.01" y="137.36" width="38.18" height="3.88" style="fill:#ee777e"/><rect x="88.01" y="128.62" width="38.18" height="3.88" style="fill:#ee777e"/><rect x="88.01" y="119.56" width="38.18" height="3.88" style="fill:#ee777e"/><rect x="88.01" y="110.51" width="13.9" height="3.88" style="fill:#ee777e"/><path d="M94.13,84.61a5,5,0,1,1-5-5A4.94,4.94,0,0,1,91,80,5,5,0,0,1,94.13,84.61Zm-5,1.15A1.16,1.16,0,1,0,88,84.59v0a1.16,1.16,0,0,0,1.11,1.15Z" transform="translate(0 0)" style="fill:#ee777e"/><polygon points="83.47 68.08 83.47 70.04 73.77 70.04 73.77 39.3 83.47 39.3 83.47 41.14 75.78 41.14 75.78 68.08 83.47 68.08" style="fill:#ee777e"/><path d="M82.68,84.61a5.05,5.05,0,1,1-5.1-5,5.23,5.23,0,0,1,2,.39A5,5,0,0,1,82.68,84.61Zm-5,1.15a1.16,1.16,0,1,0-.79-.32A1.16,1.16,0,0,0,77.68,85.76Z" transform="translate(0 0)" style="fill:#ee777e"/><rect x="76.17" y="113.67" width="2.11" height="3.88" style="fill:#ee777e"/><rect x="76.17" y="130.9" width="1.89" height="3.88" style="fill:#ee777e"/><path d="M71.24,84.61a5.05,5.05,0,1,1-5.1-5,5.23,5.23,0,0,1,2,.39A5,5,0,0,1,71.24,84.61Zm-5,1.15a1.15,1.15,0,0,0,.8-2,1.15,1.15,0,0,0-1.55,1.7A1.16,1.16,0,0,0,66.24,85.76Z" transform="translate(0 0)" style="fill:#ee777e"/><polygon points="45.93 130.9 45.93 132.83 36.22 132.83 36.22 70.04 45.93 70.04 45.93 71.97 38.18 71.97 38.18 130.9 45.93 130.9" style="fill:#ee777e"/></g></g></svg>