<svg id="Capa_1" data-name="Capa 1" xmlns="http://www.w3.org/2000/svg" viewBox="0 0 43.41 50.49"><g id="Capa_2" data-name="Capa 2"><g id="contenido"><polyline points="4.6 12.41 0.88 12.41 0.88 4.24 17.62 4.24" style="fill:none;stroke:#706f6f;stroke-miterlimit:10;stroke-width:1.7599999904632568px"/><polyline points="25.8 4.24 42.53 4.24 42.53 12.41 38.82 12.41" style="fill:none;stroke:#706f6f;stroke-miterlimit:10;stroke-width:1.7599999904632568px"/><polygon points="38.82 12.41 4.6 12.41 4.6 12.79 4.6 16.5 4.6 49.61 11.29 49.61 15.38 49.61 19.47 49.61 23.57 49.61 27.66 49.61 31.75 49.61 38.82 49.61 38.82 16.5 38.82 12.79 38.82 12.41" style="fill:none;stroke:#706f6f;stroke-miterlimit:10;stroke-width:1.7599999904632568px"/><rect x="17.62" y="0.88" width="8.18" height="3.36" style="fill:none;stroke:#706f6f;stroke-miterlimit:10;stroke-width:1.7599999904632568px"/><line x1="11.29" y1="28.41" x2="11.29" y2="49.61" style="fill:none;stroke:#706f6f;stroke-miterlimit:10;stroke-width:1.7599999904632568px"/><line x1="15.38" y1="28.41" x2="15.38" y2="49.61" style="fill:none;stroke:#706f6f;stroke-miterlimit:10;stroke-width:1.7599999904632568px"/><line x1="19.47" y1="28.41" x2="19.47" y2="49.61" style="fill:none;stroke:#706f6f;stroke-miterlimit:10;stroke-width:1.7599999904632568px"/><line x1="23.57" y1="28.41" x2="23.57" y2="49.61" style="fill:none;stroke:#706f6f;stroke-miterlimit:10;stroke-width:1.7599999904632568px"/><line x1="27.66" y1="28.41" x2="27.66" y2="49.61" style="fill:none;stroke:#706f6f;stroke-miterlimit:10;stroke-width:1.7599999904632568px"/><line x1="31.75" y1="28.41" x2="31.75" y2="49.61" style="fill:none;stroke:#706f6f;stroke-miterlimit:10;stroke-width:1.7599999904632568px"/></g></g></svg>