<svg id="Capa_1" data-name="Capa 1" xmlns="http://www.w3.org/2000/svg" viewBox="0 0 91.13 91.09"><g id="Capa_2" data-name="Capa 2"><g id="menus_bg" data-name="menus bg"><path d="M44,4.37,40.49,8a7.85,7.85,0,0,1-.84.79,1.19,1.19,0,0,1-1.74-1.61L38,7.09a20.32,20.32,0,0,1,1.44-1.5C41.06,4,42.68,2.3,44.33.68c.93-.91,1.54-.91,2.47,0l6,6c.6.59,1,1.3.35,2S51.66,9,51,8.39l-3.93-4c-.47.33-.35.67-.35,1V13a1.79,1.79,0,0,0,1,1.77C57.85,20.56,68,26.41,78.09,32.22a2.48,2.48,0,0,1,1.28,2.48V68.58a2.81,2.81,0,0,0,1.52,2.8c2.06,1.2,4,2.56,6,3.84.31.19.6.51,1.15.36l-1-4.49c-.1-.49-.22-1-.3-1.47a1.18,1.18,0,0,1,.83-1.46l.11,0a1.13,1.13,0,0,1,1.36.82s0,.07,0,.11c.14.48.24,1,.34,1.46.53,2.41,1.06,4.82,1.57,7.23.29,1.38,0,1.89-1.33,2.19-2.82.65-5.65,1.24-8.47,1.85-.83.18-1.52,0-1.73-.89s.45-1.3,1.22-1.47c1.91-.44,3.82-.85,5.7-1.26,0-.48-.26-.57-.47-.7-2.24-1.44-4.5-2.85-6.72-4.31a1.61,1.61,0,0,0-1.91,0c-10,5.78-20,11.52-29.9,17.34a3.25,3.25,0,0,1-3.72,0c-9.94-5.82-19.93-11.56-29.9-17.33a1.52,1.52,0,0,0-1.81,0c-2.44,1.6-4.9,3.15-7.52,4.82a14.29,14.29,0,0,0,3.27.9c.86.23,1.73.37,2.6.56S11.85,80,11.61,81s-1,1-1.77.82l-2.59-.56C5.33,80.8,3.4,80.4,1.49,80c-1.36-.36-1.68-.85-1.4-2.2.59-2.8,1.2-5.57,1.81-8.36.18-.82.57-1.55,1.55-1.29s1,1,.81,1.87c-.35,1.51-.66,3-1,4.53a1.91,1.91,0,0,0-.1,1.18,13.43,13.43,0,0,0,2.68-1.59c1.57-1,3.1-2,4.7-3a2.27,2.27,0,0,0,1.21-2.26V35.46a3.69,3.69,0,0,1,2.12-3.76c9.81-5.57,19.57-11.27,29.36-16.88a2,2,0,0,0,1.19-2V4.52Zm-19.78,61c.06.43.38.52.64.67q9.95,5.74,19.89,11.52a1.33,1.33,0,0,0,1.5,0L65.9,66.28c1.3-.76,1.3-.8,0-1.61-6-3.83-12-7.59-17.88-11.51-1.74-1.16-3-1.37-4.83-.11-6,4.06-12.17,7.86-18.27,11.77l-.67.55ZM67.77,51.3V41a1.8,1.8,0,0,0-1-1.81Q57.4,33.85,48,28.43c-1.28-.73-1.34-.7-1.34.81V48.1a2.21,2.21,0,0,0,1.17,2.15l18.8,12c.25.16.5.48.81.35s.27-.6.27-.92C67.78,58.24,67.77,54.77,67.77,51.3Zm-44.42-.06V61.65c0,.33-.15.76.21,1s.63-.17.91-.35l19-12.14a1.68,1.68,0,0,0,.91-1.58V28.92c0-.92-.27-1.09-1.08-.61Q34,33.7,24.58,39.06a2.24,2.24,0,0,0-1.25,2.23C23.39,44.61,23.35,47.92,23.35,51.24ZM75.59,71a4.41,4.41,0,0,0-.58-.47c-1.52-1-3.07-1.93-4.55-3a1.94,1.94,0,0,0-2.41,0c-7,4.13-14.19,8.22-21.29,12.34a2,2,0,0,1-2.27,0c-3-1.74-6-3.45-9-5.18l-12.81-7.4a1.16,1.16,0,0,0-1.38-.13c-1.74,1.14-3.5,2.26-5.26,3.36-.67.42-.56.67.06,1L44.72,88.1a1.46,1.46,0,0,0,1.69,0c4.09-2.39,8.21-4.75,12.31-7.12L75,71.55C75.26,71.43,75.57,71.37,75.59,71ZM14.34,51.43v16c0,.33-.14.78.16,1s.7-.18,1-.38c1.44-.9,2.81-1.93,4.3-2.72a2.69,2.69,0,0,0,1.5-2.79V40.1a2.51,2.51,0,0,1,1.39-2.42c7-4,13.88-8,20.83-12a1.56,1.56,0,0,0,.9-1.57V18.68c0-1.53,0-1.54-1.33-.8q-13.77,8-27.55,15.87a2,2,0,0,0-1.17,2C14.37,41,14.34,46.19,14.34,51.43Zm62.44.06c0-5-.07-10,0-14.92,0-1.65-.38-2.71-2-3.3a13.75,13.75,0,0,1-1.8-1L47.84,17.67c-.71-.42-1.12-.51-1.11.53v6a1.49,1.49,0,0,0,1,1.42c6.85,3.94,13.67,7.91,20.53,11.83a2.92,2.92,0,0,1,1.66,2.86c-.06,7.52,0,15,0,22.55A2.2,2.2,0,0,0,71,65c1.54,1,3,2,4.56,3,.31.2.62.63,1,.43s.2-.7.2-1.06Q76.79,59.41,76.78,51.49Z" transform="translate(0 0)" style="fill:#706f6f"/></g></g></svg>