<svg id="Capa_1" data-name="Capa 1" xmlns="http://www.w3.org/2000/svg" viewBox="0 0 71.61 71.51"><g id="Capa_2" data-name="Capa 2"><g id="menus_bg" data-name="menus bg"><path d="M1.94,27.63A25.57,25.57,0,0,0,24.11,53a25.24,25.24,0,0,0,18.43-4.6,1.26,1.26,0,0,1,1.78,0,1.07,1.07,0,0,1,.14.16c.43.48.91.92,1.36,1.39a.87.87,0,0,1,.1,1.23l-.1.1a.91.91,0,0,1-1.29,0l-.05,0c-1.29-1-1.3-1-2.67-.15a26.62,26.62,0,0,1-13.94,4A27,27,0,0,1,9.12,48a26.8,26.8,0,0,1-9-17.27,26.77,26.77,0,0,1,6.32-21A26.56,26.56,0,0,1,24.38.2,26.75,26.75,0,0,1,45.82,7,26.73,26.73,0,0,1,55,24.58a26.54,26.54,0,0,1-4.08,17.65c-.54.85-.67,1.41.19,2.06a1,1,0,0,1,.38,1.36l0,0a.91.91,0,0,1-1.23.34.87.87,0,0,1-.21-.17c-.59-.53-1.14-1.1-1.69-1.68s-.32-1.05.07-1.58a24.41,24.41,0,0,0,4.15-9.11c1.86-8.55,0-16.25-5.73-22.84A24.8,24.8,0,0,0,25.57,2,25.58,25.58,0,0,0,2.1,24.54C2,25.57,2,26.6,1.94,27.63Z" transform="translate(0.11 0.01)" style="fill:#706f6f"/><path d="M6.85,27.55A20.73,20.73,0,1,1,27.56,48.3,20.73,20.73,0,0,1,6.85,27.55ZM27.62,8.82a18.76,18.76,0,1,0,18.72,18.8v-.18A18.72,18.72,0,0,0,27.62,8.82Z" transform="translate(0.11 0.01)" style="fill:#706f6f"/><path d="M47.19,54.68a4.76,4.76,0,0,1,1.42-3.43c.85-.9,1.73-1.78,2.63-2.62A4.79,4.79,0,0,1,58,48.48a2.5,2.5,0,0,1,.23.23L70,60.47a4.73,4.73,0,0,1,.24,6.68l-.13.14c-.91,1-1.84,1.92-2.82,2.81a4.73,4.73,0,0,1-6.68,0L60.49,70c-4-3.92-7.88-7.87-11.82-11.81A4.66,4.66,0,0,1,47.19,54.68ZM69.51,64a2.87,2.87,0,0,0-.91-2.17q-3.1-3.09-6.19-6.2c-.42-.43-.69-.47-1.14,0q-2.81,2.88-5.69,5.69c-.44.44-.43.71,0,1.14,2.08,2.05,4.12,4.13,6.2,6.18a2.88,2.88,0,0,0,4.07.19,1.7,1.7,0,0,0,.19-.19c.88-.83,1.72-1.7,2.57-2.56A2.78,2.78,0,0,0,69.51,64ZM49.07,54.67a3.8,3.8,0,0,0,1.52,2.73c.33.3.56.32.88,0l5.94-5.95c.18-.19.4-.38.16-.68-1.31-1.6-3.1-2.47-4.94-.82-.94.84-1.81,1.77-2.7,2.68A3.11,3.11,0,0,0,49.07,54.67Zm11.32-1a3.36,3.36,0,0,0-1.12-1.16c-.37-.24-.58.17-.79.38-1.88,1.87-3.74,3.76-5.64,5.6-.59.58-.25.89.16,1.28s.71.87,1.34.21c1.86-1.92,3.78-3.79,5.67-5.69a.91.91,0,0,0,.38-.59Z" transform="translate(0.11 0.01)" style="fill:#706f6f"/></g></g></svg>