<svg id="Capa_1" data-name="Capa 1" xmlns="http://www.w3.org/2000/svg" viewBox="0 0 176.82 200"><g id="Capa_2" data-name="Capa 2"><g id="contenido"><path d="M156.66,1.82,6.7,88.39a13.42,13.42,0,0,0,0,23.23l150,86.58a13.41,13.41,0,0,0,20.12-11.61V13.43A13.41,13.41,0,0,0,156.66,1.82Z" transform="translate(0 0)" style="fill:#ededed"/><path d="M141.88,68V190.45a2.1,2.1,0,0,1-2.1,2.1H68.71a2.1,2.1,0,0,1-2.1-2.1h0V68a2.1,2.1,0,0,1,2.1-2.1h8.23V68h4.2V65.9h46.21V68h4.2V65.9h8.23a2.1,2.1,0,0,1,2.1,2.1Zm-4.2,120.39v-42.5H79.36v-4.2h58.32V70.08H79.36v-2H68.84V190.45H79.36v-2.1Z" transform="translate(0 0)" style="fill:#ee777e"/><rect x="128.42" y="78.85" width="4.22" height="8.7" style="fill:#ee777e"/><rect x="127.35" y="65.86" width="4.2" height="2.1" style="fill:#ee777e"/><path d="M131.55,27.85v38h-4.2V30h-5V48a2.1,2.1,0,0,1-2.11,2.11H111.1A2.11,2.11,0,0,1,109,48V30H99.49V48a2.11,2.11,0,0,1-2.1,2.11H88.24A2.11,2.11,0,0,1,86.14,48V30h-5V65.86h-4.2v-38a2.1,2.1,0,0,1,2.1-2.1h50.41A2.1,2.1,0,0,1,131.55,27.85ZM118.13,45.91V30H113.2V46Zm-22.84,0V30h-5V46Z" transform="translate(0 0)" style="fill:#ee777e"/><rect x="117.91" y="78.85" width="4.2" height="8.7" style="fill:#ee777e"/><path d="M120.25,159.22v16a2.1,2.1,0,0,1-2.1,2.1H90.34a2.1,2.1,0,0,1-2.1-2.1h0v-16a2.1,2.1,0,0,1,2.1-2.1h27.81a2.1,2.1,0,0,1,2.1,2.1Zm-4.2,13.9v-11.8H92.44v11.8Z" transform="translate(0 0)" style="fill:#ee777e"/><rect x="107.41" y="78.85" width="4.2" height="8.7" style="fill:#ee777e"/><rect x="96.88" y="78.85" width="4.2" height="8.7" style="fill:#ee777e"/><rect x="86.37" y="78.85" width="4.2" height="8.7" style="fill:#ee777e"/><rect x="76.94" y="65.86" width="4.2" height="2.1" style="fill:#ee777e"/><rect x="79.36" y="78.85" width="0.69" height="8.7" style="fill:#b2b2b2"/><polygon points="79.36 188.35 79.36 190.45 68.84 190.45 68.84 143.84 68.84 68.12 79.36 68.12 79.36 70.08 70.81 70.08 70.81 141.69 79.36 141.69 79.36 145.89 70.81 145.89 70.81 188.35 79.36 188.35" style="fill:#ee777e"/><rect x="75.85" y="78.85" width="3.51" height="8.7" style="fill:#ee777e"/></g></g></svg>