<svg id="Capa_1" data-name="Capa 1" xmlns="http://www.w3.org/2000/svg" viewBox="0 0 176.82 200"><g id="Capa_2" data-name="Capa 2"><g id="contenido"><path d="M156.66,1.82,6.7,88.39a13.42,13.42,0,0,0,0,23.23l150,86.58a13.41,13.41,0,0,0,20.12-11.61V13.43A13.41,13.41,0,0,0,156.66,1.82Z" transform="translate(0 0)" style="fill:#ededed"/><polyline points="45.8 62.3 33.6 62.3 33.6 35.48 88.44 35.48" style="fill:none;stroke:#ee777e;stroke-miterlimit:10;stroke-width:4px"/><polyline points="115.25 35.48 170.05 35.48 170.05 62.3 157.89 62.3" style="fill:none;stroke:#ee777e;stroke-miterlimit:10;stroke-width:4px"/><polygon points="157.89 62.3 45.8 62.3 45.8 63.51 45.8 75.67 45.8 184.14 67.7 184.14 81.11 184.14 94.52 184.14 107.93 184.14 121.33 184.14 134.74 184.14 157.89 184.14 157.89 75.67 157.89 63.51 157.89 62.3" style="fill:none;stroke:#ee777e;stroke-miterlimit:10;stroke-width:4px"/><rect x="88.44" y="24.49" width="26.82" height="10.99" style="fill:none;stroke:#ee777e;stroke-miterlimit:10;stroke-width:4px"/><line x1="67.7" y1="114.68" x2="67.7" y2="184.14" style="fill:none;stroke:#ee777e;stroke-miterlimit:10;stroke-width:4px"/><line x1="81.11" y1="114.68" x2="81.11" y2="184.14" style="fill:none;stroke:#ee777e;stroke-miterlimit:10;stroke-width:4px"/><line x1="94.52" y1="114.68" x2="94.52" y2="184.14" style="fill:none;stroke:#ee777e;stroke-miterlimit:10;stroke-width:4px"/><line x1="107.93" y1="114.68" x2="107.93" y2="184.14" style="fill:none;stroke:#ee777e;stroke-miterlimit:10;stroke-width:4px"/><line x1="121.33" y1="114.68" x2="121.33" y2="184.14" style="fill:none;stroke:#ee777e;stroke-miterlimit:10;stroke-width:4px"/><line x1="134.74" y1="114.68" x2="134.74" y2="184.14" style="fill:none;stroke:#ee777e;stroke-miterlimit:10;stroke-width:4px"/></g></g></svg>