<svg id="Capa_1" data-name="Capa 1" xmlns="http://www.w3.org/2000/svg" viewBox="0 0 116.88 70.84"><g id="Capa_2" data-name="Capa 2"><g id="menus_bg" data-name="menus bg"><path d="M84.74,68.94c.15-1,1.07-1.19,2-1.2H92.1a20.55,20.55,0,0,0,11.34-2.25c7.3-4.12,11-10.43,10.33-18.74-.59-8-4.92-13.56-12.35-16.6a3.51,3.51,0,0,1-2.64-3.31A14,14,0,0,0,84.94,14.21a11.51,11.51,0,0,0-5.15.9c-1.41.65-2.37.28-3.37-.86A31.47,31.47,0,0,0,57.24,3.5,31.72,31.72,0,0,0,30.66,11,31.18,31.18,0,0,0,20.52,27.3a2.58,2.58,0,0,1-2.16,2C4.41,32.57-1.58,48.18,6.78,59.76a18.55,18.55,0,0,0,15.13,8c2.77.08,5.55,0,8.32,0,1,0,2,.13,2.12,1.2v.35c0,1.27-1,1.53-2.07,1.51-4.1-.08-8.22.3-12.3-.49A22.76,22.76,0,0,1,.11,50.54,22.49,22.49,0,0,1,16.27,26.71c1.2-.34,1.54-1.09,1.89-2.09C22.76,11.5,31.88,3.28,45.52.69c12.31-2.35,23,1.36,31.84,10.23a2.7,2.7,0,0,0,3.1.89c9.62-2.7,19.7,4,21.22,14a2.06,2.06,0,0,0,1.41,1.79c8.75,4,13.54,10.85,13.78,20.35A22.3,22.3,0,0,1,96.69,70.61c-3.33.32-6.65.13-10,.18-1,0-2-.23-2-1.55A1.57,1.57,0,0,1,84.74,68.94Z" transform="translate(0 0)" style="fill:#4dbcc3"/><path d="M113.77,46.75c.62,8.31-3,14.62-10.33,18.74A20.55,20.55,0,0,1,92.1,67.74H86.77c-1,0-1.88.16-2,1.2H32.35c-.16-1.07-1.13-1.2-2.12-1.2-2.77,0-5.55.06-8.32,0a18.55,18.55,0,0,1-15.13-8C-1.58,48.18,4.41,32.57,18.36,29.27a2.58,2.58,0,0,0,2.16-2A31.22,31.22,0,0,1,30.66,11,31.72,31.72,0,0,1,57.24,3.5,31.47,31.47,0,0,1,76.42,14.25c1,1.14,2,1.51,3.37.86a11.51,11.51,0,0,1,5.15-.9A14,14,0,0,1,98.78,26.84a3.51,3.51,0,0,0,2.64,3.31C108.85,33.19,113.18,38.8,113.77,46.75ZM81.18,43.34c.4-.91-.25-1.47-.81-2Q70.19,31.15,60,21c-1.3-1.3-1.8-1.29-3.1,0L36.5,41.33c-.56.56-1.2,1.11-.79,2s1.2.89,2,.89H47.83c2,0,2,0,2,2V57.7c0,1,.29,2,1.6,2,1.12,0,1.36-.86,1.39-1.75H64c0,1,.4,1.76,1.53,1.74s1.37-.92,1.45-1.85V46.08c0-1.74.07-1.81,1.77-1.81h10.4C80,44.25,80.8,44.22,81.18,43.34Z" transform="translate(0 0)" style="fill:#4dbcc3"/></g></g></svg>