<svg id="Capa_1" data-name="Capa 1" xmlns="http://www.w3.org/2000/svg" viewBox="0 0 516.53 468.09"><g id="Capa_2" data-name="Capa 2"><g id="contenido"><path d="M279.85,468.09c-55.61,0-106.39-19.41-150.91-57.7s-71.25-88.78-79.12-149.8a215.19,215.19,0,0,1-1.58-28.82L25.11,253.63c-.58.55-1.15,1.11-1.73,1.68-1.12,1.09-2.28,2.23-3.52,3.32-2.95,2.58-5.8,3.83-8.74,3.83A10.72,10.72,0,0,1,3,258.53c-5.28-5.89-2.81-12.26,1.25-16.25l3.09-3c4.25-4.17,8.64-8.48,13.06-12.64,6.15-5.81,12.45-11.68,18.53-17.35l11.62-10.85c2.93-2.76,6.43-5.69,10.7-5.69,4,0,7.12,2.39,10.54,6,9.06,9.5,18.22,19.19,27.07,28.55l15.91,16.82a16.53,16.53,0,0,1,4.51,7.56c.56,2.59.39,6.47-3.58,10.23a10.68,10.68,0,0,1-7.43,3.23c-4.26,0-7.45-2.77-9.75-5.19L88,248.79,71.6,231.6a180.62,180.62,0,0,0,.31,20.68c3.81,41.39,18.07,78.28,42.4,109.66,36.95,47.67,85.06,75.12,143,81.59a251.72,251.72,0,0,0,27.45,1.56c60.75,0,113.28-24,156.16-71.35,31.49-34.8,49-76.69,52.09-124.51,4.42-68.69-19.45-127.16-70.93-173.78C390.24,46.59,352.2,29.45,309,24.52a246.3,246.3,0,0,0-27.95-1.63c-57.49,0-108.47,21.93-151.53,65.19-10,10-19.29,22.26-28.49,37.45-1.58,2.62-4.23,7-10.06,7.38h-.8a11,11,0,0,1-9.17-4.7c-2-2.85-3.53-7.53.3-13.78a234,234,0,0,1,22.36-31.34c38-44.15,85.53-71,141.16-79.83A257.56,257.56,0,0,1,285.1,0c54.47,0,104.41,18.72,148.43,55.64,45.88,38.46,73.06,88.15,80.81,147.67,8.68,66.78-8.6,127.15-51.37,179.44-37,45.29-85,72.89-142.46,82A259.94,259.94,0,0,1,279.85,468.09Z" transform="translate(0.01 0)" style="fill:#ee777e"/><path d="M509.38,204c8.51,65.42-8.46,124.5-50.28,175.63-36.15,44.2-83,71.29-139.38,80.26-70.45,11.21-133.41-6.72-187.52-53.25C87.34,368,62.32,318.45,54.78,260a220.12,220.12,0,0,1-1.41-34.72c0-1.13-.18-2.28-.39-4.82L21.68,250c-1.72,1.62-3.36,3.33-5.12,4.88-3.17,2.77-6.59,3.92-9.83.31-3-3.32-1.84-6.52,1-9.34,5.34-5.23,10.65-10.49,16.08-15.61,10-9.44,20.1-18.78,30.14-28.18,6.12-5.74,8.53-5.87,14.21.08,14.37,15.07,28.63,30.24,43,45.36,3.14,3.32,5.13,6.92,1.12,10.72-3.87,3.65-7.17,1.33-10.13-1.78L70.05,222.7a18.66,18.66,0,0,1-1.9-2.83l-1.37.77c0,10.71-.83,21.49.15,32.1C70.75,294.21,84.77,332,110.36,365c37.18,48,86,76.74,146.4,83.49,74.48,8.3,137.65-15.94,187.87-71.41,32.54-35.94,50.26-79,53.38-127.54,4.56-70.92-20.15-130.34-72.56-177.81C392.68,42.05,353.64,24.59,309.6,19.56c-71.64-8.2-132.83,14-183.6,65C114.59,96,105.16,109.11,96.78,122.94c-1.44,2.39-2.88,4.79-6.07,5a6.09,6.09,0,0,1-5.64-2.6c-2-2.83-1.13-5.66.47-8.28a231.38,231.38,0,0,1,21.89-30.69C144.13,43.77,190.14,17,245.58,8.2c69-11,131.1,6.29,184.74,51.27C475.32,97.2,501.83,145.89,509.38,204Z" transform="translate(0.01 0)" style="fill:#ee777e"/><path d="M149.39,247.4c-.56,2.24-3.07,5.75,1.57,6.51,3.77.61,8,1.11,9.26-4.49,1.79-7.85,3.89-15.62,5.88-23.42,1.94-7.62,3.86-15.25,5.88-22.84.7-2.68,1.67-5.34,4.6-6.43a5.66,5.66,0,0,1,6.09.89c2.19,2,2.16,4.44,1.48,7.07-3.48,13.5-6.88,27-10.4,40.52-2.23,8.63-2.1,8.87,7,8.9h17.68c4.52,0,9-.15,13.55,0,6,.24,11.56-.35,16.72-4.1,3.88-2.82,8.75-3.33,13.57-3.12,3.2.15,4.9-.35,3-4.3-10.94-23.23-7.75-39.26,11.12-56.91,1.34-1.25,2.68-2.32,1.81-4.46-1.25-3.13-3.3-5.56-6.76-5.85-4.48-.38-9-.27-13.52-.37-2.55,0-5.12.05-7.66-.15-3.33-.25-6.26-1.42-7.19-5-.88-3.42,1.24-5.53,3.75-7.32,7.78-5.55,11.58-13,11.39-22.63-.2-11.11-5.71-18.83-15.44-23-9.92-4.27-19.8-3-28,4.52-7.76,7.08-10.23,16.14-7.49,26.3,1.63,6,4.89,11.14,10.37,14.54,3.11,1.92,5.12,4.42,3.92,8.28-1.15,3.65-4.25,4.36-7.53,4.44-5.31.1-10.61,0-15.92.08-8,.11-10.93,2.34-12.91,10.09Q157.19,216.25,149.39,247.4Z" transform="translate(0.01 0)" style="fill:#b2b2b2"/><path d="M207.45,348.27c-1,3.77.43,4.86,4,5,9.09.44,9.64.29,11.88-8.24,4.12-15.77,8.08-31.59,12.15-47.38a64.21,64.21,0,0,1,2-6.78c1.29-3.53,3.7-5.82,7.67-4.53,3.79,1.23,4.85,4.15,3.85,8-3.24,12.56-6.39,25.13-9.58,37.7-1.25,4.95-2.37,9.95-3.88,14.82s.24,6.44,5,6.4c14.14-.12,28.29-.05,42.44-.05,13.95,0,27.9-.14,41.85.09,5.29.07,6.42-1.75,5.08-6.7-4.46-16.49-8.62-33.08-12.89-49.63a26.63,26.63,0,0,1-.83-3.42c-.49-3.58.79-6.32,4.39-7.3s6.23.74,7.23,4.25c2.11,7.37,4.05,14.78,6,22.2,3,11.6,5.83,23.24,8.83,34.85,1.25,4.85,11.08,8.16,14.88,5.1,1.55-1.26.88-2.9.51-4.37-6.72-26.46-13.38-52.95-20.31-79.37-1.75-6.68-6.21-9.65-13.67-9.92-6.28-.24-12.58-.07-18.87-.1-3.52,0-7.42.41-8.89-4s1.52-6.75,4.72-9c17.67-12.62,17.55-39.21-.15-51.3-14.12-9.64-33.76-6.35-43.64,7.32a31.59,31.59,0,0,0,7.08,44c3,2.23,6.65,4.23,5,8.87s-5.75,4.07-9.49,4.1c-6.29,0-12.57-.14-18.86.1-6.78.23-11.3,3.42-13,9.92C221,295.35,214.3,321.84,207.45,348.27Z" transform="translate(0.01 0)" style="fill:#4dbcc3"/><path d="M311.33,176.38c-4.8,2.73-5.23,6.29-1.18,10.05,17.59,16.39,21,34.31,10.38,55.81-2,4.09-.64,4.86,3,4.69a26.17,26.17,0,0,1,17.58,5.63c3.11,2.37,6.8,1.44,10.27,1.51,5.3.13,10.61,0,15.91,0,6.69,0,13.38-.2,20,.06,4.86.2,6.29-1.3,5-6.2-3.7-13.65-7.06-27.4-10.56-41.11-.53-2.08-1.27-4.16-.67-6.36a5.28,5.28,0,0,1,5.09-4.16c3.44-.27,5.68,1.43,6.57,4.67,2.05,7.38,4,14.79,5.93,22.22,2.21,8.55,4.29,17.15,6.55,25.7,1.23,4.63,4.93,6.42,9.43,5,3.06-1,2.34-3.17,1.8-5.28-2-7.8-4.05-15.59-6.07-23.39-3.47-13.51-6.9-27-10.42-40.53-2-7.69-4.45-9.53-12.5-9.64-5.1-.07-10.22,0-15.33-.06-3.49-.05-6.8-.72-8.21-4.46-1.5-4,1.25-6.06,3.94-8.25,12.72-10.37,15-25.43,5.84-37.5-9-11.83-25.81-13.58-37.72-3.91-10.9,8.84-12.12,26.12-2.5,36.92a45.82,45.82,0,0,0,5.65,5.14c2.47,2,4.33,4.14,3.13,7.5s-3.85,4.39-7,4.47c-5.71.15-11.41.1-17.1.14C315.83,175.08,313.48,175.15,311.33,176.38Z" transform="translate(0.01 0)" style="fill:#ee777e"/></g></g></svg>