<svg id="Capa_1" data-name="Capa 1" xmlns="http://www.w3.org/2000/svg" viewBox="0 0 304.42 415.9"><g id="Capa_2" data-name="Capa 2"><g id="menus_bg" data-name="menus bg"><path d="M115.58,45a12.62,12.62,0,0,0-9.78,4q-36,36.27-72.3,72.28a15.31,15.31,0,0,0-4.9,11.82q.16,106,.09,212L39,330.9V140.54c0-7.29,0-7.29,7.43-7.3h62.45c6.89,0,8.08-1.22,8.08-8.08,0-21.59.12-43.18-.08-64.76,0-4.44,1.32-5.8,5.77-5.78q57.71.16,115.41.08L245,45Zm-11.46,78H48.56l58.69-58.34v54.71c0,2.07-.74,3.55-3.13,3.55ZM280.64,64,270.37,78.19V363.83c0,6.83,0,6.84-6.95,6.84H59.59l-7,9.67H271c8.82,0,9.64-.84,9.64-9.91V213.14Q280.65,138.55,280.64,64Z" transform="translate(0 0)" style="fill:#ee777e"/><polygon points="304.42 7.02 276.77 45.39 269.51 55.46 42.39 370.59 35.41 380.28 9.74 415.9 0 408.88 28.69 369.07 38.95 354.84 255.26 54.69 262.23 45.02 294.68 0 304.42 7.02" style="fill:#ee777e"/></g></g></svg>