<svg id="Capa_1" data-name="Capa 1" xmlns="http://www.w3.org/2000/svg" viewBox="0 0 57.85 79.01"><g id="Capa_2" data-name="Capa 2"><g id="menus_bg" data-name="menus bg"><path d="M57.84,39.49v37.8c0,1.71,0,1.72-1.73,1.72H1.76C0,79,0,79,0,77.21V21.48c0-1.82,0-1.82,1.85-1.82H17.46c1.72,0,2-.3,2-2V1.48C19.45.33,19.79,0,20.9,0H56.28c1.54,0,1.56,0,1.56,1.54Q57.86,20.51,57.84,39.49Z" transform="translate(0 0)" style="fill:#4dbcc3"/><path d="M17.07,2.49V16.17c0,.54-.19.91-.79.91H2.4Z" transform="translate(0 0)" style="fill:#4dbcc3"/></g></g></svg>