<svg id="Capa_1" data-name="Capa 1" xmlns="http://www.w3.org/2000/svg" viewBox="0 0 86.68 86.55"><g id="Capa_2" data-name="Capa 2"><g id="menus_bg" data-name="menus bg"><path d="M86.68,40.85c.09.92-.31,1.21-1.2,1.2H73c-.79,0-1.4.31-1.42,1.17s.57,1.21,1.37,1.22H85.19c1.48,0,1.56,0,1.47,1.48a41.16,41.16,0,0,1-5.29,18.16C74.22,76.54,63.5,83.93,49.27,86.15c-1.22.19-2.46.22-3.69.33-.75.06-1-.29-1-1v-12c0-1.49-.38-2.15-1.24-2.06-1.26.13-1.18,1.11-1.18,2v11.1c0,2.12,0,2.15-2.12,2A43.52,43.52,0,0,1,.34,49C.18,47.9.16,46.78,0,45.67c-.09-.92.31-1.21,1.2-1.2H13.83a1.15,1.15,0,0,0,1.31-1.17c0-.79-.5-1.17-1.26-1.22H2.1c-2.2,0-2.21,0-2-2.18A42.46,42.46,0,0,1,8.82,17.08,43,43,0,0,1,37.68.3C38.74.15,39.83.13,40.9,0s1.28.31,1.27,1.26V12.94c0,1.6.36,2.27,1.24,2.17C44.75,15,44.58,13.9,44.58,13V1.42C44.53.32,44.87-.07,46,0A41.88,41.88,0,0,1,64.1,5.22Q83,15.93,86.36,37.4C86.54,38.54,86.55,39.71,86.68,40.85ZM62.61,60.31V26.19c0-1.89-.27-2.16-2.13-2.16H26.18c-1.79,0-2.07.29-2.07,2.1V60.36c0,1.81.29,2.1,2.07,2.1h34.3C62.34,62.46,62.61,62.19,62.61,60.31Z" transform="translate(-0.01 0.02)" style="fill:#4dbcc3"/><path d="M60.28,58.63c0,1.17-.35,1.51-1.52,1.51q-15.4-.06-30.81,0c-1.17,0-1.53-.36-1.51-1.52V27.87c0-1.18.36-1.52,1.53-1.51H58.78c1.17,0,1.52.35,1.51,1.51Q60.22,43.25,60.28,58.63Zm-5.69-21c.55-.55.92-1.27.25-1.93s-1.41-.35-2,.26l-.66.65c-3.68,3.68-7.38,7.34-11,11-.7.71-1.13.94-1.86,0-1.44-1.91-3-3.7-4.54-5.54-.52-.62-1.14-1-1.88-.39s-.45,1.25,0,1.85q2.94,3.63,5.91,7.25a1.64,1.64,0,0,0,1.25.74A1.48,1.48,0,0,0,41.19,51q6.7-6.63,13.4-13.34Z" transform="translate(-0.01 0.02)" style="fill:#4dbcc3"/></g></g></svg>