<svg id="Capa_1" data-name="Capa 1" xmlns="http://www.w3.org/2000/svg" viewBox="0 0 181.09 200"><g id="Capa_2" data-name="Capa 2"><g id="contenido"><path d="M156.66,1.82,6.7,88.39a13.42,13.42,0,0,0,0,23.23l150,86.58a13.41,13.41,0,0,0,20.12-11.61V13.43A13.41,13.41,0,0,0,156.66,1.82Z" transform="translate(0 0)" style="fill:#ededed"/><path d="M90.05,29q31.24.09,62.5,0c2.71,0,2.75,0,2.75,2.72V89.65l4.53-13.86V28.89c0-3.72-.43-4.17-4.05-4.17H86.94a5.64,5.64,0,0,0-4.32,1.79q-15.9,16-31.92,31.92a6.75,6.75,0,0,0-2.17,5.22q.07,52.5,0,105c0,3.77.41,4.17,4.25,4.17H155.59c3.89,0,4.25-.37,4.25-4.37v-34.7l-4.53,13.85v17.9c0,3,0,3-3.07,3h-96c-3.12,0-3.13,0-3.13-3.17V66.9c0-3.22,0-3.22,3.28-3.22H84c3,0,3.57-.54,3.57-3.57V31.52C87.49,29.54,88.08,29,90.05,29ZM83.27,57.51c0,1-.32,1.61-1.38,1.61H57.36L83.27,33.36Z" transform="translate(0 0)" style="fill:#ee777e"/><rect x="75.73" y="75.3" width="58.24" height="5.32" style="fill:#ee777e"/><rect x="113.16" y="95.65" width="95.78" height="10.84" transform="translate(14.93 222.72) rotate(-71.89)" style="fill:#ee777e"/><polygon points="141.01 144.91 143.76 153.93 151.31 148.28 141.01 144.91" style="fill:#ee777e"/><rect x="75.73" y="98.41" width="58.24" height="5.32" style="fill:#ee777e"/><rect x="75.73" y="121.53" width="58.24" height="5.32" style="fill:#ee777e"/><rect x="75.73" y="144.64" width="58.24" height="5.32" style="fill:#ee777e"/></g></g></svg>