<svg id="Capa_1" data-name="Capa 1" xmlns="http://www.w3.org/2000/svg" viewBox="0 0 64.45 59.11"><g id="Capa_2" data-name="Capa 2"><g id="contenido"><path d="M64.45,14.51V42.32a.87.87,0,0,1-.86.86H45.92V41.46H62.73V15.37H5.15v-.86H.85v27.8h4.3v-.85H18.54v1.72H.86A.88.88,0,0,1,0,42.32V14.51a.87.87,0,0,1,.86-.86H8.05V8a.87.87,0,0,1,.86-.86h7.73V.86A.88.88,0,0,1,17.5,0H47a.87.87,0,0,1,.86.86h0v6.3H55.6a.87.87,0,0,1,.86.86h0v5.63h7.18A.84.84,0,0,1,64.45,14.51Zm-9.76-.86V8.88H47.81v4.77Zm-8.6,0V1.72H21.77V.91h-4.3v13.6h4.3v-.86Zm-29.45,0V8.88H9.77v4.77Z" transform="translate(0 0)" style="fill:#ee777e"/><path d="M53.47,27.12v7.57a.88.88,0,0,1-.86.86H45.92V33.83h5.83V28h-39v5.85h5.83v1.72H11.85a.87.87,0,0,1-.86-.86h0V27.12a.87.87,0,0,1,.86-.86H52.61A.88.88,0,0,1,53.47,27.12Z" transform="translate(0 0)" style="fill:#ee777e"/><rect x="45.92" y="27.98" width="5.83" height="5.85" style="fill:#ee777e"/><path d="M45.92,43.18V58.25a.87.87,0,0,1-.86.86H25a.77.77,0,0,1-.48-.2l-5.7-5a.89.89,0,0,1-.29-.65V43.18h.83V41.46h-.83V35.55h.94V33.83h-.94V28h1.71V52.4h4.86a.85.85,0,0,1,.86.84v4.15H44.2V28h1.72v5.85h-.8v1.72h.8v5.91H45V43.2ZM24.25,56.37V54.12H21.67Z" transform="translate(0 0)" style="fill:#ee777e"/><rect x="45.02" y="41.46" width="0.9" height="1.72" style="fill:#ee777e"/><rect x="45.12" y="33.83" width="0.8" height="1.72" style="fill:#ee777e"/><polygon points="21.77 13.65 21.77 14.51 17.47 14.51 17.47 0.91 21.77 0.91 21.77 1.72 18.36 1.72 18.36 13.65 21.77 13.65" style="fill:#ee777e"/><rect x="18.54" y="33.83" width="0.94" height="1.72" style="fill:#ee777e"/><rect x="18.54" y="41.46" width="0.84" height="1.72" style="fill:#ee777e"/><rect x="12.71" y="27.98" width="5.83" height="5.85" style="fill:#ee777e"/><polygon points="5.15 41.46 5.15 42.31 0.85 42.31 0.85 14.51 5.15 14.51 5.15 15.37 1.72 15.37 1.72 41.46 5.15 41.46" style="fill:#ee777e"/></g></g></svg>