<svg id="Capa_1" data-name="Capa 1" xmlns="http://www.w3.org/2000/svg" viewBox="0 0 101.52 101.4"><g id="Capa_2" data-name="Capa 2"><g id="menus_bg" data-name="menus bg"><path d="M50.75,0A1.14,1.14,0,0,1,52,1a.89.89,0,0,1,0,.23V3.79c0,.85.3,1.06,1.08,1.11A43.88,43.88,0,0,1,68.22,8.35c15.88,7,25.27,19.12,28,36.27a34.52,34.52,0,0,1,.39,3.79c0,.88.44,1.13,1.24,1.08s1.47,0,2.2,0,1.49.27,1.47,1.22-.7,1.19-1.52,1.18H98c-1-.08-1.37.22-1.44,1.26a46,46,0,0,1-43.33,43.3c-1,.06-1.35.47-1.26,1.42.06.65,0,1.31,0,2s-.21,1.5-1.18,1.52-1.25-.71-1.24-1.57v-2c.07-.89-.21-1.3-1.2-1.37A43.13,43.13,0,0,1,34.7,93.57Q10.61,83.85,5.54,58.35a42.32,42.32,0,0,1-.62-5.27c-.06-1-.47-1.26-1.37-1.19h-2C.72,51.9,0,51.7,0,50.66s.79-1.19,1.63-1.18H3.49c1,.09,1.37-.21,1.43-1.25A44.63,44.63,0,0,1,7.61,35.16,46.16,46.16,0,0,1,48.31,4.92c1-.06,1.33-.47,1.26-1.42a22.25,22.25,0,0,1,0-2.31A1.13,1.13,0,0,1,50.64,0ZM52,86.54V92.9c0,.73.27,1.08,1,1,1.23-.11,2.47-.14,3.69-.33q21.32-3.31,32.09-22a41.12,41.12,0,0,0,5.29-18.15c.09-1.45,0-1.48-1.47-1.48H80.32c-.8,0-1.38-.37-1.37-1.23s.63-1.17,1.42-1.17H92.84c.89,0,1.29-.29,1.2-1.2a21.11,21.11,0,0,0-.27-3.45Q90.43,23.4,71.51,12.66a41.87,41.87,0,0,0-18.1-5.21c-1.13-.08-1.47.31-1.45,1.43V20.44c0,.91.17,2-1.17,2.12-.88.1-1.24-.57-1.24-2.17V8.71c0-1-.29-1.36-1.27-1.25s-2.16.13-3.22.29A42.9,42.9,0,0,0,16.23,24.52,42.41,42.41,0,0,0,7.49,47.3c-.19,2.18-.18,2.18,2,2.18H21.33a1.13,1.13,0,0,1,1.26,1.21c0,.79-.55,1.14-1.31,1.17H8.69c-.89,0-1.29.28-1.2,1.2.12,1.11.14,2.23.3,3.33a43.54,43.54,0,0,0,39.65,37.5c2.12.18,2.12.15,2.12-2V80.82c0-.9-.08-1.88,1.18-2,.86-.08,1.23.57,1.24,2.06Z" transform="translate(0 0.01)" style="fill:#706f6f"/><path d="M50.86,31.47h17c1.86,0,2.13.28,2.13,2.16V67.75c0,1.88-.27,2.15-2.13,2.16H33.59c-1.78,0-2.07-.29-2.07-2.09V33.58c0-1.8.28-2.1,2.07-2.1Zm-17,19.22V66.06c0,1.16.34,1.52,1.51,1.52q15.41-.06,30.81,0c1.16,0,1.53-.34,1.52-1.51q-.06-15.37,0-30.75c0-1.16-.34-1.53-1.51-1.52q-15.4.06-30.81,0c-1.17,0-1.54.34-1.53,1.51,0,5.12,0,10.25,0,15.38Z" transform="translate(0 0.01)" style="fill:#706f6f"/><path d="M47.46,59a1.6,1.6,0,0,1-1.25-.74q-3-3.61-5.91-7.25c-.49-.6-.7-1.27,0-1.84s1.36-.23,1.88.38c1.53,1.84,3.1,3.64,4.54,5.54.73,1,1.16.73,1.86,0,3.66-3.7,7.36-7.36,11-11l.66-.65c.6-.61,1.31-1,2-.26s.3,1.38-.25,1.93Q55.3,51.83,48.58,58.52A1.48,1.48,0,0,1,47.46,59Z" transform="translate(0 0.01)" style="fill:#706f6f"/></g></g></svg>