<svg id="Capa_1" data-name="Capa 1" xmlns="http://www.w3.org/2000/svg" viewBox="0 0 176.82 200"><g id="Capa_2" data-name="Capa 2"><g id="contenido"><path d="M156.66,1.82,6.7,88.39a13.42,13.42,0,0,0,0,23.23l150,86.58a13.41,13.41,0,0,0,20.12-11.61V13.43A13.41,13.41,0,0,0,156.66,1.82Z" transform="translate(0 0)" style="fill:#ededed"/><path d="M159.6,41.17V188.11a2.21,2.21,0,0,1-2.22,2.2H40.05a2.2,2.2,0,0,1-2.22-2.18v-147A2.2,2.2,0,0,1,40.05,39H73.46V33.68a2.22,2.22,0,0,1,2.2-2.2h9.75V28.25A13.31,13.31,0,1,1,112,27.52c0,.24,0,.49,0,.73v3.23h9.74a2.21,2.21,0,0,1,2.21,2.2V39h33.41A2.2,2.2,0,0,1,159.6,41.17ZM155.17,185.9V43.37H124v3.57h-2.28v4.41H124V54a2.21,2.21,0,0,1-2.21,2.21H75.66A2.21,2.21,0,0,1,73.46,54V51.35h2.28V46.94H73.46V43.37H42.25V185.9ZM119.56,51.84v-16H77.87v16Zm-12-20.36V28.25a8.9,8.9,0,0,0-17.8,0v3.23Z" transform="translate(0 0)" style="fill:#ee777e"/><path d="M149,49.14V153.61a2.2,2.2,0,0,1-.59,1.5l-17.74,19.15A2.26,2.26,0,0,1,129,175H50.65a2.21,2.21,0,0,1-2.21-2.2V49.14a2.21,2.21,0,0,1,2.21-2.2H73.46v4.41H61.59V49h-11V172.82h11v-2.25h65.13V153.75a2.21,2.21,0,0,1,2.2-2.21h15.65V51.35H124V46.94h22.81A2.21,2.21,0,0,1,149,49.14ZM131.15,167.25,141.61,156H131.15Z" transform="translate(0 0)" style="fill:#ee777e"/><rect x="69.68" y="141.95" width="58.07" height="4.41" style="fill:#ee777e"/><rect x="69.68" y="130.19" width="58.07" height="4.41" style="fill:#ee777e"/><rect x="69.68" y="118.43" width="58.07" height="4.41" style="fill:#ee777e"/><rect x="69.68" y="106.68" width="58.07" height="4.41" style="fill:#ee777e"/><rect x="69.68" y="94.9" width="58.07" height="4.43" style="fill:#ee777e"/><rect x="69.68" y="83.14" width="58.07" height="4.41" style="fill:#ee777e"/><rect x="121.69" y="46.94" width="2.28" height="4.41" style="fill:#ee777e"/><rect x="69.68" y="71.39" width="24.62" height="4.41" style="fill:#ee777e"/><rect x="73.46" y="46.94" width="2.28" height="4.41" style="fill:#ee777e"/><polygon points="61.59 170.57 61.59 172.81 50.57 172.81 50.57 48.97 61.59 48.97 61.59 51.35 52.85 51.35 52.85 170.57 61.59 170.57" style="fill:#ee777e"/></g></g></svg>