<svg id="Capa_1" data-name="Capa 1" xmlns="http://www.w3.org/2000/svg" viewBox="0 0 185.78 200"><g id="Capa_2" data-name="Capa 2"><g id="contenido"><path d="M156.66,1.82,6.7,88.39a13.42,13.42,0,0,0,0,23.23l150,86.58a13.41,13.41,0,0,0,20.12-11.61V13.43A13.41,13.41,0,0,0,156.66,1.82Z" transform="translate(0 0)" style="fill:#ededed"/><path d="M104.06,179.43H29.62c-3.07,0-4.08-.46-4.38-.85s-.49-1.43.24-4.28l2.16-8.44q9.36-36.72,18.8-73.4c2.76-10.77,9.8-16.24,20.91-16.27H80.61L78.2,73.13c-15.69-19.94-10.47-40.48,1.66-52a36.67,36.67,0,0,1,25.21-10.38,38.52,38.52,0,0,1,24.45,9.12c7.38,6,11.58,14.37,12.83,25.49.82,7.32-1.64,14.54-9.4,27.6l-1.3,2.21,2.48.6a19.43,19.43,0,0,0,4.68.48c.75,0,1.49,0,2.22,0s1.38,0,2.07,0h.19c11.21.07,18.28,5.51,21,16.17q10.5,40.91,20.94,81.83c.77,3,.59,4.08.3,4.45s-1.25.8-4.25.8Zm-63-4.18c1.68,0,3.16.05,4.54.15h.84c4.51,0,5.82-3.2,6.41-5.61,3.09-12.61,6.36-25.4,9.53-37.78l2.52-9.85c.68-2.67,1.39-5.43,2.23-8.07.51-1.62,1.37-1.62,1.65-1.62a3.38,3.38,0,0,1,.45,0c.57.11,1.33.26,1.11,2.27a25.19,25.19,0,0,1-.72,3.43v.11Q63.18,143.64,56.71,169c-.58,2.26-1,3.76,0,5s2.57,1.26,5,1.26H149c2.6,0,4.16,0,5.16-1.28s.59-2.84,0-5.2Q151,156.6,147.9,144.42q-2.51-9.73-5-19.47c-.85-3.33-1.74-6.78-2.51-10.24-.34-1.53.36-2,1.18-2.21a2.1,2.1,0,0,1,.61-.09c.23,0,.94,0,1.56,1.5a17.06,17.06,0,0,1,.74,2.53c.07.32.15.64.23,1l3.13,12.15c3.42,13.3,7,27,10.34,40.6.55,2.23,1.79,5.19,6.11,5.19H165c1-.07,2.14-.1,3.51-.1h5.92c2.66,0,4.41,0,5.46-1.38s.61-3,0-5.54q-9.45-37-18.91-74C158.35,84,152.93,79.8,142.3,79.72H124.61c-2.45,0-2.8-.35-3.06-1.21s-.31-1.71,1.84-3a33,33,0,0,0,15-29.7A32.14,32.14,0,0,0,127.74,23.3,34.65,34.65,0,0,0,105,14.75,31.77,31.77,0,0,0,80.1,26.46,33.58,33.58,0,0,0,72.61,52.4,33.78,33.78,0,0,0,87.23,75.34c2.15,1.49,2.53,2.07,2.13,3.27-.31,1-.7,1.18-3.09,1.18H75c-3,0-5.35,0-7.57.08-9.37.23-14.85,4.56-17.26,13.63-1.36,5.08-2.67,10.26-4,15.26q-.75,3-1.52,6L41.1,128.84c-3.38,13.21-6.87,26.88-10.37,40.31-.38,1.44-.67,3.29.42,4.7s3.27,1.53,4,1.53h.43c1.81-.07,3.62-.13,5.42-.13Z" transform="translate(0 0)" style="fill:#ee777e"/></g></g></svg>