<svg id="Capa_1" data-name="Capa 1" xmlns="http://www.w3.org/2000/svg" viewBox="0 0 170.89 149.26"><g id="Capa_2" data-name="Capa 2"><g id="contenido"><path d="M170.27,142.32,162,128h-4.07l9.28,16.1a1.13,1.13,0,0,1,0,1.1,1.06,1.06,0,0,1-.92.53H4.61a1.06,1.06,0,0,1-.92-.53,1,1,0,0,1,0-1.07L13,128H8.91L.62,142.32a4.54,4.54,0,0,0,0,4.59,4.58,4.58,0,0,0,4,2.32H166.28a4.63,4.63,0,0,0,4.61-4.63,4.55,4.55,0,0,0-.61-2.28ZM84.51,4.09a1,1,0,0,1,.92-.54,1.07,1.07,0,0,1,.95.54l23.22,40.2h4.07l-24.24-42a4.56,4.56,0,0,0-4-2.32,4.62,4.62,0,0,0-4,2.32l-24.22,42H61.3Z" transform="translate(0 0.03)" style="fill:#b1b1b1"/><path d="M81.54,113.87a28.28,28.28,0,0,1-3.28.62,31.37,31.37,0,0,1-4.64.32c-3.47,0-6-.58-7.5-1.72s-2.29-3.36-2.29-6.62V81.87a5.65,5.65,0,0,0-1.93-4.74,8,8,0,0,0-5-1.51,14.34,14.34,0,0,0-3.91.52A20,20,0,0,0,49.5,77.5v36.37a30.28,30.28,0,0,1-3.29.62,31.15,31.15,0,0,1-4.63.32c-3.48,0-6-.58-7.51-1.72s-2.29-3.36-2.29-6.62V75.1A8,8,0,0,1,33,70.51a12.75,12.75,0,0,1,3.28-3.23,29.2,29.2,0,0,1,8.91-4A44.47,44.47,0,0,1,57.1,61.77q11.77,0,18.14,5.16t6.35,14.43Z" transform="translate(0 0.03)" style="fill:#4ebbc2"/><path d="M88.32,63.53a27.89,27.89,0,0,1,3.28-.62,31.37,31.37,0,0,1,4.64-.32c3.47,0,6,.58,7.5,1.72S106,67.67,106,70.93V93.86q0,4.27,2.09,6.09a8.87,8.87,0,0,0,6,1.83,15.12,15.12,0,0,0,3.91-.42,13,13,0,0,0,2.34-.83v-37a28.05,28.05,0,0,1,3.29-.62,31.37,31.37,0,0,1,4.64-.32c3.47,0,6,.58,7.5,1.72s2.29,3.36,2.29,6.62v32.2a8.53,8.53,0,0,1-4.37,7.82,28.88,28.88,0,0,1-8.71,3.49,47.36,47.36,0,0,1-11,1.2,40.72,40.72,0,0,1-10.37-1.25,23.31,23.31,0,0,1-8.18-3.86,17.22,17.22,0,0,1-5.32-6.72,24,24,0,0,1-1.87-10Z" transform="translate(0 0.03)" style="fill:#ed777e"/><text transform="translate(143.13 76.64)" style="isolation:isolate;font-size:18.540000915527344px;fill:#b1b1b1;font-family:Arial-BoldMT, Arial;font-weight:700">®</text></g></g></svg>